<svg width="26" height="26" viewBox="0 0 26 26" fill="none" xmlns="http://www.w3.org/2000/svg">
<path d="M4.06959 25H7.41847C8.23254 24.9993 9.01273 24.6778 9.5883 24.1068C10.1637 23.5356 10.4874 22.7613 10.4883 21.9536V18.6301C10.4883 17.7395 10.9671 16.9166 11.7441 16.4713C12.5212 16.026 13.4787 16.026 14.2558 16.4713C15.0328 16.9166 15.5116 17.7395 15.5116 18.6301V21.9536C15.5125 22.7613 15.8362 23.5356 16.4116 24.1068C16.9872 24.6779 17.7674 24.9993 18.5814 25H21.9303C22.7442 24.9993 23.5244 24.6778 24.1 24.1068C24.6754 23.5356 24.9993 22.7613 25 21.9536V11.3649C25.0033 10.1019 24.4244 8.90691 23.4283 8.12114L15.6144 1.9171C14.874 1.32361 13.951 1 12.9994 1C12.0479 1 11.1248 1.32363 10.3844 1.9171L2.57054 8.12114C1.5754 8.90767 0.996998 10.1023 1.00001 11.3649V21.9536C1.00076 22.7613 1.32462 23.5356 1.9 24.1068C2.47558 24.6779 3.25582 24.9993 4.06969 25H4.06959Z" stroke="#6B7280" stroke-width="2"/>
</svg>
