<svg width="26" height="26" viewBox="0 0 26 26" fill="none" xmlns="http://www.w3.org/2000/svg">
<path d="M13.1442 13.936C13.0602 13.924 12.9522 13.924 12.8562 13.936C10.7442 13.864 9.06421 12.136 9.06421 10.012C9.06421 7.83999 10.8162 6.07599 13.0002 6.07599C15.1722 6.07599 16.9362 7.83999 16.9362 10.012C16.9242 12.136 15.2562 13.864 13.1442 13.936Z" fill="#E41B4D" stroke="#E41B4D" stroke-width="2" stroke-linecap="round" stroke-linejoin="round"/>
<path d="M21.0876 21.856C18.9516 23.812 16.1196 25 12.9996 25C9.87962 25 7.04762 23.812 4.91162 21.856C5.03162 20.728 5.75162 19.624 7.03562 18.76C10.3236 16.576 15.6996 16.576 18.9636 18.76C20.2476 19.624 20.9676 20.728 21.0876 21.856Z" fill="#E41B4D" stroke="#E41B4D" stroke-width="2" stroke-linecap="round" stroke-linejoin="round"/>
<path d="M13 25C19.6274 25 25 19.6274 25 13C25 6.37258 19.6274 1 13 1C6.37258 1 1 6.37258 1 13C1 19.6274 6.37258 25 13 25Z" stroke="#E41B4D" stroke-width="2" stroke-linecap="round" stroke-linejoin="round"/>
</svg>
