<svg width="30" height="24" viewBox="0 0 30 24" fill="none" xmlns="http://www.w3.org/2000/svg">
<mask id="path-1-inside-1_5_260" fill="white">
<path d="M29.9832 3.94036L27.5703 15.6422C27.5321 15.8283 27.4312 15.9955 27.285 16.1152C27.1386 16.2352 26.9558 16.3007 26.7673 16.3007H11.9937C12.1965 16.6994 12.5052 17.0335 12.8855 17.2657C13.2655 17.4979 13.7022 17.6194 14.1468 17.6162H14.1524L24.695 17.5931H24.6969C24.9899 17.5929 25.261 17.7501 25.4076 18.0058C25.5545 18.2613 25.5547 18.5764 25.4085 18.8323C25.2622 19.0882 24.9916 19.2461 24.6986 19.2463L14.156 19.2694H14.1466C13.2099 19.2758 12.3004 18.9534 11.5741 18.3573C10.8477 17.7615 10.3499 16.9294 10.1661 16.0041L7.21159 1.67797L0.818527 1.65319C0.525469 1.65276 0.255065 1.49466 0.109069 1.23855C-0.0369266 0.982437 -0.0362809 0.667543 0.110565 0.412067C0.257628 0.156601 0.52888 -0.000429233 0.821939 8.81316e-07H0.825145L7.88252 0.0273567H7.8823C8.07041 0.0280029 8.25252 0.0936989 8.39831 0.213679C8.54387 0.333659 8.64412 0.500377 8.68238 0.685839L9.14858 2.94559H29.1798H29.1795C29.4264 2.94559 29.6601 3.0576 29.8159 3.2506C29.9717 3.44338 30.0331 3.69691 29.9828 3.94033L29.9832 3.94036ZM14.4999 19.5916C13.92 19.5916 13.3636 19.8238 12.9534 20.2371C12.5432 20.6505 12.3127 21.2112 12.3127 21.7958C12.3127 22.3804 12.5432 22.9411 12.9534 23.3544C13.3636 23.7678 13.92 24 14.4999 24C15.08 24 15.6364 23.7678 16.0466 23.3544C16.4568 22.9411 16.6873 22.3804 16.6873 21.7958C16.6866 21.2114 16.456 20.6513 16.0462 20.2382C15.6362 19.8249 15.0805 19.5924 14.5005 19.5916H14.4999ZM22.8804 19.5916C22.3003 19.5916 21.7439 19.8238 21.3337 20.2371C20.9235 20.6505 20.6931 21.2112 20.6931 21.7958C20.6931 22.3804 20.9235 22.9411 21.3337 23.3544C21.7439 23.7678 22.3003 24 22.8804 24C23.4606 24 24.017 23.7678 24.4272 23.3544C24.8374 22.9411 25.0678 22.3804 25.0678 21.7958C25.0671 21.2114 24.8365 20.6513 24.4265 20.2382C24.0167 19.8249 23.461 19.5924 22.8811 19.5916H22.8804Z"/>
</mask>
<path d="M29.9832 3.94036L31.942 4.34425L32.3928 2.15783L30.1702 1.94912L29.9832 3.94036ZM27.5703 15.6422L25.6115 15.2383L25.6113 15.2395L27.5703 15.6422ZM27.285 16.1152L26.0176 14.5681L26.0174 14.5683L27.285 16.1152ZM11.9937 16.3007V14.3007H8.73219L10.2111 17.2076L11.9937 16.3007ZM12.8855 17.2657L13.9282 15.559L13.9278 15.5588L12.8855 17.2657ZM14.1468 17.6162V15.6162H14.1396L14.1323 15.6162L14.1468 17.6162ZM14.1524 17.6162V19.6162L14.1568 19.6162L14.1524 17.6162ZM24.695 17.5931V15.5931L24.6906 15.5931L24.695 17.5931ZM24.6969 17.5931V19.5931L24.6984 19.5931L24.6969 17.5931ZM25.4076 18.0058L23.6726 19.0006L23.6737 19.0025L25.4076 18.0058ZM24.6986 19.2463L24.6971 17.2463L24.6942 17.2463L24.6986 19.2463ZM14.156 19.2694V21.2694L14.1604 21.2694L14.156 19.2694ZM14.1466 19.2694V17.2693L14.1328 17.2694L14.1466 19.2694ZM11.5741 18.3573L12.8427 16.8112L12.8425 16.8111L11.5741 18.3573ZM10.1661 16.0041L12.1278 15.6144L12.1263 15.6073L12.1249 15.6001L10.1661 16.0041ZM7.21159 1.67797L9.17036 1.274L8.84251 -0.31573L7.21934 -0.322019L7.21159 1.67797ZM0.818527 1.65319L0.826277 -0.346797L0.821467 -0.346804L0.818527 1.65319ZM0.110565 0.412067L-1.62275 -0.585742L-1.6234 -0.584606L0.110565 0.412067ZM0.821939 8.81316e-07L0.819003 2H0.821939V8.81316e-07ZM0.825145 8.81316e-07L0.832897 -2H0.825145V8.81316e-07ZM7.88252 0.0273567V2.02736L7.89027 -1.97263L7.88252 0.0273567ZM7.8823 0.0273567V-1.97264L7.87543 2.02734L7.8823 0.0273567ZM8.39831 0.213679L9.67035 -1.32966L9.66924 -1.33058L8.39831 0.213679ZM8.68238 0.685839L6.72363 1.08993L6.72363 1.08994L8.68238 0.685839ZM9.14858 2.94559L7.18983 3.34969L7.51907 4.94559H9.14858V2.94559ZM29.8159 3.2506L28.2598 4.50703L28.2605 4.50785L29.8159 3.2506ZM29.9828 3.94033L28.0241 3.5361L27.5728 5.72282L29.7959 5.93157L29.9828 3.94033ZM12.9534 20.2371L14.373 21.6459L14.373 21.6459L12.9534 20.2371ZM12.9534 23.3544L14.373 21.9457L14.373 21.9457L12.9534 23.3544ZM16.0466 23.3544L14.627 21.9457L16.0466 23.3544ZM16.6873 21.7958H18.6873L18.6873 21.7936L16.6873 21.7958ZM16.0462 20.2382L14.6262 21.6466L14.6262 21.6466L16.0462 20.2382ZM14.5005 19.5916L14.5036 17.5916H14.5005V19.5916ZM21.3337 20.2371L22.7533 21.6459L22.7533 21.6459L21.3337 20.2371ZM21.3337 23.3544L22.7533 21.9457L22.7533 21.9457L21.3337 23.3544ZM24.4272 23.3544L23.0075 21.9457L23.0075 21.9457L24.4272 23.3544ZM25.0678 21.7958H27.0678L27.0678 21.7936L25.0678 21.7958ZM24.4265 20.2382L23.0061 21.6462L23.0069 21.647L24.4265 20.2382ZM22.8811 19.5916L22.8841 17.5916H22.8811V19.5916ZM28.0244 3.53647L25.6115 15.2383L29.5291 16.0461L31.942 4.34425L28.0244 3.53647ZM25.6113 15.2395C25.665 14.9781 25.8072 14.7405 26.0176 14.5681L28.5524 17.6624C29.0552 17.2505 29.3991 16.6786 29.5294 16.045L25.6113 15.2395ZM26.0174 14.5683C26.2267 14.3967 26.4914 14.3007 26.7673 14.3007V18.3007C27.4202 18.3007 28.0504 18.0738 28.5526 17.6622L26.0174 14.5683ZM26.7673 14.3007H11.9937V18.3007H26.7673V14.3007ZM10.2111 17.2076C10.5811 17.9348 11.1453 18.5465 11.8432 18.9726L13.9278 15.5588C13.8651 15.5205 13.812 15.4641 13.7762 15.3938L10.2111 17.2076ZM11.8428 18.9724C12.5398 19.3983 13.3425 19.6221 14.1614 19.6161L14.1323 15.6162C14.062 15.6167 13.9912 15.5976 13.9282 15.559L11.8428 18.9724ZM14.1468 19.6162H14.1524V15.6162H14.1468V19.6162ZM14.1568 19.6162L24.6993 19.5931L24.6906 15.5931L14.148 15.6162L14.1568 19.6162ZM24.695 19.5931H24.6969V15.5931H24.695V19.5931ZM24.6984 19.5931C24.2704 19.5934 23.8808 19.3638 23.6726 19.0006L27.1426 17.011C26.6412 16.1365 25.7095 15.5924 24.6954 15.5931L24.6984 19.5931ZM23.6737 19.0025C23.4661 18.6415 23.4664 18.1997 23.672 17.84L27.1449 19.8246C27.6429 18.9532 27.6428 17.881 27.1415 17.0091L23.6737 19.0025ZM23.672 17.84C23.8788 17.4782 24.2673 17.2466 24.6971 17.2463L24.7 21.2463C25.716 21.2456 26.6457 20.6982 27.1449 19.8246L23.672 17.84ZM24.6942 17.2463L14.1516 17.2694L14.1604 21.2694L24.7029 21.2463L24.6942 17.2463ZM14.156 17.2694H14.1466V21.2694H14.156V17.2694ZM14.1328 17.2694C13.6652 17.2726 13.209 17.1118 12.8427 16.8112L10.3054 19.9035C11.3918 20.7949 12.7547 21.279 14.1604 21.2693L14.1328 17.2694ZM12.8425 16.8111C12.4759 16.5103 12.2218 16.0877 12.1278 15.6144L8.20441 16.3937C8.47801 17.7711 9.21962 19.0128 10.3056 19.9036L12.8425 16.8111ZM12.1249 15.6001L9.17036 1.274L5.25281 2.08193L8.2073 16.408L12.1249 15.6001ZM7.21934 -0.322019L0.826277 -0.346791L0.810778 3.65318L7.20384 3.67795L7.21934 -0.322019ZM0.821467 -0.346804C1.2516 -0.346172 1.64017 -0.114022 1.84659 0.248078L-1.62845 2.22902C-1.13004 3.10334 -0.200663 3.6517 0.815588 3.65319L0.821467 -0.346804ZM1.84659 0.248078C2.05197 0.608363 2.05099 1.04956 1.84453 1.40874L-1.6234 -0.584606C-2.12355 0.285528 -2.12582 1.35651 -1.62845 2.22902L1.84659 0.248078ZM1.84388 1.40988C1.63573 1.77146 1.24691 2.00063 0.819003 2L0.824874 -2C-0.189151 -2.00149 -1.12047 -1.45826 -1.62275 -0.585742L1.84388 1.40988ZM0.821939 2H0.825145V-2H0.821939V2ZM0.817393 1.99999L7.87476 2.02734L7.89027 -1.97263L0.832897 -1.99998L0.817393 1.99999ZM7.88252 -1.97264H7.8823V2.02736H7.88252V-1.97264ZM7.87543 2.02734C7.60107 2.0264 7.33688 1.93036 7.12737 1.75794L9.66924 -1.33058C9.16817 -1.74296 8.53975 -1.9704 7.88917 -1.97263L7.87543 2.02734ZM7.12626 1.75702C6.91772 1.58514 6.77708 1.34899 6.72363 1.08993L10.6411 0.281747C10.5112 -0.348239 10.17 -0.917819 9.67035 -1.32966L7.12626 1.75702ZM6.72363 1.08994L7.18983 3.34969L11.1073 2.54149L10.6411 0.281741L6.72363 1.08994ZM9.14858 4.94559H29.1798V0.945593H9.14858V4.94559ZM29.1798 0.945593H29.1795V4.94559H29.1798V0.945593ZM29.1795 4.94559C28.8185 4.94559 28.4814 4.7815 28.2598 4.50703L31.372 1.99417C30.8387 1.3337 30.0344 0.945593 29.1795 0.945593V4.94559ZM28.2605 4.50785C28.0387 4.23352 27.9538 3.877 28.0241 3.5361L31.9416 4.34456C32.1124 3.51683 31.9047 2.65325 31.3713 1.99335L28.2605 4.50785ZM29.7959 5.93157L29.7962 5.9316L30.1702 1.94912L30.1698 1.94908L29.7959 5.93157ZM14.4999 17.5916C13.3846 17.5916 12.3178 18.0382 11.5337 18.8283L14.373 21.6459C14.4093 21.6093 14.4553 21.5916 14.4999 21.5916V17.5916ZM11.5337 18.8283C10.7501 19.618 10.3127 20.6858 10.3127 21.7958H14.3127C14.3127 21.7365 14.3362 21.6829 14.373 21.6459L11.5337 18.8283ZM10.3127 21.7958C10.3127 22.9058 10.7501 23.9735 11.5337 24.7632L14.373 21.9457C14.3363 21.9086 14.3127 21.855 14.3127 21.7958H10.3127ZM11.5337 24.7632C12.3178 25.5533 13.3846 26 14.4999 26V22C14.4554 22 14.4093 21.9823 14.373 21.9457L11.5337 24.7632ZM14.4999 26C15.6153 26 16.6821 25.5534 17.4663 24.7632L14.627 21.9457C14.5908 21.9822 14.5448 22 14.4999 22V26ZM17.4663 24.7632C18.2499 23.9735 18.6873 22.9058 18.6873 21.7958H14.6873C14.6873 21.855 14.6638 21.9086 14.627 21.9457L17.4663 24.7632ZM18.6873 21.7936C18.686 20.6844 18.2484 19.6184 17.4662 18.8298L14.6262 21.6466C14.6636 21.6843 14.6872 21.7384 14.6873 21.798L18.6873 21.7936ZM17.4662 18.8298C16.6829 18.04 15.6178 17.5932 14.5036 17.5916L14.4975 21.5915C14.5432 21.5916 14.5896 21.6097 14.6262 21.6466L17.4662 18.8298ZM14.5005 17.5916H14.4999V21.5916H14.5005V17.5916ZM22.8804 17.5916C21.765 17.5916 20.6982 18.0381 19.914 18.8283L22.7533 21.6459C22.7895 21.6094 22.8355 21.5916 22.8804 21.5916V17.5916ZM19.914 18.8283C19.1304 19.618 18.6931 20.6858 18.6931 21.7958H22.6931C22.6931 21.7365 22.7166 21.6829 22.7533 21.6459L19.914 18.8283ZM18.6931 21.7958C18.6931 22.9058 19.1304 23.9735 19.9141 24.7632L22.7533 21.9457C22.7166 21.9086 22.6931 21.855 22.6931 21.7958H18.6931ZM19.914 24.7632C20.6982 25.5534 21.765 26 22.8804 26V22C22.8356 22 22.7895 21.9822 22.7533 21.9457L19.914 24.7632ZM22.8804 26C23.9958 26 25.0626 25.5534 25.8468 24.7632L23.0075 21.9457C22.9713 21.9822 22.9253 22 22.8804 22V26ZM25.8468 24.7632C26.6304 23.9735 27.0678 22.9058 27.0678 21.7958H23.0678C23.0678 21.855 23.0443 21.9086 23.0075 21.9457L25.8468 24.7632ZM27.0678 21.7936C27.0666 20.6843 26.6289 19.6181 25.8461 18.8294L23.0069 21.647C23.0441 21.6845 23.0677 21.7384 23.0678 21.798L27.0678 21.7936ZM25.8469 18.8302C25.0635 18.0399 23.9981 17.5932 22.8841 17.5916L22.878 21.5915C22.9238 21.5916 22.97 21.6098 23.0061 21.6462L25.8469 18.8302ZM22.8811 17.5916H22.8804V21.5916H22.8811V17.5916Z" fill="#6B7280" mask="url(#path-1-inside-1_5_260)"/>
</svg>
