<svg width="24" height="24" viewBox="0 0 24 24" fill="none" xmlns="http://www.w3.org/2000/svg">
<path d="M10.1917 0.000325157C6.92812 0.00172018 3.86251 1.56584 1.94541 4.20745C0.0281016 6.84936 -0.509349 10.2494 0.499789 13.3535C1.50921 16.4581 3.94277 18.8918 7.0468 19.9004C10.1506 20.9088 13.5495 20.37 16.1899 18.4513L21.2682 23.5312C21.6723 23.9355 22.2617 24.0934 22.8139 23.9455C23.3662 23.7973 23.7974 23.366 23.9455 22.8135C24.0933 22.2611 23.9355 21.6716 23.5313 21.2673L18.4531 16.1874C19.9363 14.1481 20.6108 11.6312 20.3467 9.12326C20.0823 6.61528 18.898 4.29451 17.0222 2.60929C15.1468 0.924062 12.7129 -0.00554633 10.1921 2.48972e-05L10.1917 0.000325157ZM10.1917 17.1997C8.33583 17.1997 6.55605 16.4623 5.24373 15.1495C3.93142 13.8368 3.19425 12.0565 3.19425 10.1999C3.19425 8.34344 3.93142 6.56308 5.24373 5.25035C6.55605 3.93761 8.33583 3.20021 10.1917 3.20021C12.0476 3.20021 13.8274 3.93761 15.1397 5.25035C16.4521 6.56308 17.1892 8.34344 17.1892 10.1999C17.187 12.0556 16.4493 13.8349 15.1373 15.1471C13.8255 16.4595 12.0469 17.1975 10.1917 17.1997Z" fill="#6B7280"/>
</svg>
