<svg width="30" height="24" viewBox="0 0 30 24" fill="none" xmlns="http://www.w3.org/2000/svg">
<path d="M29.9832 3.94036L27.5703 15.6422C27.5321 15.8283 27.4312 15.9955 27.285 16.1152C27.1386 16.2352 26.9558 16.3007 26.7673 16.3007H11.9937C12.1965 16.6994 12.5052 17.0335 12.8855 17.2657C13.2655 17.4979 13.7022 17.6194 14.1468 17.6162H14.1524L24.695 17.5931H24.6969C24.9899 17.5929 25.261 17.7501 25.4076 18.0058C25.5545 18.2613 25.5547 18.5764 25.4085 18.8323C25.2622 19.0882 24.9916 19.2461 24.6986 19.2463L14.156 19.2694H14.1466C13.2099 19.2758 12.3004 18.9534 11.5741 18.3573C10.8477 17.7615 10.3499 16.9294 10.1661 16.0041L7.21159 1.67797L0.818527 1.65319C0.525469 1.65276 0.255065 1.49466 0.109069 1.23855C-0.0369266 0.982437 -0.0362809 0.667543 0.110565 0.412067C0.257628 0.156601 0.52888 -0.000429233 0.821939 8.81316e-07H0.825145L7.88252 0.0273567H7.8823C8.07041 0.0280029 8.25252 0.0936989 8.39831 0.213679C8.54387 0.333659 8.64412 0.500377 8.68238 0.685839L9.14858 2.94559H29.1798H29.1795C29.4264 2.94559 29.6601 3.0576 29.8159 3.2506C29.9717 3.44338 30.0331 3.69691 29.9828 3.94033L29.9832 3.94036ZM14.4999 19.5916C13.92 19.5916 13.3636 19.8238 12.9534 20.2371C12.5432 20.6505 12.3127 21.2112 12.3127 21.7958C12.3127 22.3804 12.5432 22.9411 12.9534 23.3544C13.3636 23.7678 13.92 24 14.4999 24C15.08 24 15.6364 23.7678 16.0466 23.3544C16.4568 22.9411 16.6873 22.3804 16.6873 21.7958C16.6866 21.2114 16.456 20.6513 16.0462 20.2382C15.6362 19.8249 15.0805 19.5924 14.5005 19.5916H14.4999ZM22.8804 19.5916C22.3003 19.5916 21.7439 19.8238 21.3337 20.2371C20.9235 20.6505 20.6931 21.2112 20.6931 21.7958C20.6931 22.3804 20.9235 22.9411 21.3337 23.3544C21.7439 23.7678 22.3003 24 22.8804 24C23.4606 24 24.017 23.7678 24.4272 23.3544C24.8374 22.9411 25.0678 22.3804 25.0678 21.7958C25.0671 21.2114 24.8365 20.6513 24.4265 20.2382C24.0167 19.8249 23.461 19.5924 22.8811 19.5916H22.8804Z" fill="#E41B4D"/>
</svg>
