<svg width="10" height="18" viewBox="0 0 10 18" fill="none" xmlns="http://www.w3.org/2000/svg">
<path d="M9.99638 9.07521C9.97794 9.26002 9.89338 9.4349 9.7547 9.5748L1.7725 17.6765H1.77232C1.60181 17.8608 1.35334 17.9764 1.08381 17.9967C0.814289 18.0172 0.546841 17.9407 0.342742 17.7847C0.138644 17.6289 0.0154499 17.4069 0.0013563 17.1698C-0.0127377 16.9326 0.0834852 16.7006 0.267922 16.527L7.6813 9.00008L0.267922 1.47321C0.0834852 1.29939 -0.0127373 1.06738 0.0013563 0.830196C0.0154503 0.593147 0.138639 0.371233 0.342742 0.215261C0.546841 0.0593147 0.81428 -0.0172043 1.08381 0.00325966C1.35335 0.0237255 1.60181 0.139198 1.77232 0.323549L9.75453 8.4252H9.7547C9.93218 8.60421 10.0194 8.83881 9.99638 9.07525V9.07521Z" fill="#E41B4D"/>
</svg>
